<?xml version="1.0" encoding="UTF-8"?>
<svg version="1.1" xmlns="http://www.w3.org/2000/svg" width="399" height="399">
<path d="M0 0 C131.67 0 263.34 0 399 0 C399 131.67 399 263.34 399 399 C267.33 399 135.66 399 0 399 C0 267.33 0 135.66 0 0 Z " fill="#141414" transform="translate(0,0)"/>
<path d="M0 0 C13.80405405 0 13.80405405 0 20.75 2 C21.45898438 2.19078125 22.16796875 2.3815625 22.8984375 2.578125 C24.60262727 3.03871683 26.30193913 3.51730249 28 4 C27.24493964 11.75990655 25.97260058 19.39120251 24.63671875 27.0703125 C24.40087889 28.43720621 24.16527294 29.8041403 23.92988586 31.17111206 C23.31073093 34.76292517 22.6883625 38.35417413 22.06530762 41.9453125 C21.44584394 45.51918758 20.82951994 49.09360376 20.21289062 52.66796875 C17.48928002 68.44774188 14.74785469 84.22443206 12 100 C12.18175781 99.3709375 12.36351562 98.741875 12.55078125 98.09375 C13.93602496 93.37681757 15.42256956 88.75637509 17.18930054 84.16989136 C18.93549637 79.49608137 20.45283476 74.74016764 22.01953125 70.00390625 C22.40058517 68.85695786 22.7816391 67.71000946 23.17424011 66.52830505 C24.79236427 61.65773252 26.40696155 56.78599303 28.02172852 51.91430664 C35.95506221 27.99153353 35.95506221 27.99153353 39.51171875 17.90234375 C39.75420853 17.21411026 39.9966983 16.52587677 40.24653625 15.81678772 C41.07602976 13.48665694 41.89273678 11.21452643 43 9 C49.93998648 11.16163513 56.43117569 13.8936214 63 17 C62.36189457 19.95458251 61.40534449 22.41429897 60.02563477 25.09985352 C59.61753067 25.89911758 59.20942657 26.69838165 58.78895569 27.52186584 C58.34426437 28.38218918 57.89957306 29.24251251 57.44140625 30.12890625 C56.74663429 31.48446877 56.74663429 31.48446877 56.03782654 32.86741638 C54.54991516 35.7677806 53.05618004 38.6651032 51.5625 41.5625 C50.59143903 43.45489454 49.6207324 45.34747096 48.65039062 47.24023438 C43.26256395 57.7367666 37.80858124 68.19671088 32.30151367 78.63110352 C28.95973772 84.9661789 25.66647091 91.32616935 22.375 97.6875 C21.74615103 98.90172237 21.11724473 100.11591506 20.48828125 101.33007812 C18.99163093 104.21976451 17.49553422 107.10973588 16 110 C18.65601269 106.69306455 21.2489554 103.36351771 23.75 99.9375 C24.36359375 99.10089844 24.9771875 98.26429688 25.609375 97.40234375 C28.41290754 93.47298318 31.05475212 89.43469808 33.72509766 85.41430664 C37.880709 79.16589972 42.10222025 72.96162818 46.3125 66.75 C46.77399445 66.06879089 47.23548889 65.38758179 47.71096802 64.68572998 C53.34855374 56.36476047 58.9998718 48.0540245 64.70947266 39.78222656 C67.85647934 35.22108335 70.95292649 30.6284661 74 26 C77.64824138 26.60943163 79.8159523 28.15450092 82.6875 30.4375 C83.47511719 31.05496094 84.26273437 31.67242187 85.07421875 32.30859375 C87 34 87 34 88 36 C87.61070312 36.49886719 87.22140625 36.99773437 86.8203125 37.51171875 C83.64430559 41.58783822 80.48106031 45.67308333 77.33764648 49.77441406 C73.32492455 55.00793154 69.26705552 60.19742492 65.1328125 65.3359375 C62.54888646 68.56347882 59.99116439 71.81099393 57.4375 75.0625 C57.00252197 75.61607178 56.56754395 76.16964355 56.11938477 76.73999023 C52.99877233 80.7161701 49.89363783 84.70427126 46.79174805 88.69506836 C45.06418164 90.91743577 43.33507728 93.1385967 41.60546875 95.359375 C34.70845305 104.21787252 27.8314348 113.09080162 21 122 C25.42089266 118.64132773 29.271405 114.86354905 33.17700195 110.93652344 C33.87998917 110.23368225 34.58297638 109.53084106 35.30726624 108.80670166 C37.61998406 106.49328965 39.92914396 104.17636047 42.23828125 101.859375 C43.8451744 100.25061591 45.45228913 98.64207811 47.05961609 97.03375244 C51.28188892 92.80766824 55.50114954 88.57858912 59.7197876 84.34887695 C64.02817158 80.03024916 68.33940078 75.71446377 72.65039062 71.3984375 C81.10304574 62.93506941 89.55252102 54.4685343 98 46 C101.40162087 47.58948466 103.32494326 49.23358619 105.75 52.125 C106.36359375 52.84945312 106.9771875 53.57390625 107.609375 54.3203125 C108.06828125 54.87460938 108.5271875 55.42890625 109 56 C107.43668992 59.9684025 104.67877299 62.41568551 101.5625 65.1875 C101.02681396 65.67162354 100.49112793 66.15574707 99.93920898 66.65454102 C95.69371056 70.45992298 91.28991222 74.04811377 86.84765625 77.62109375 C83.04561367 80.7972857 79.45096248 84.17270822 75.83618164 87.55834961 C71.64670474 91.4599667 67.27827064 95.07324797 62.8125 98.65625 C59.60149423 101.33208814 56.54979875 104.14366866 53.5 107 C48.64120958 111.54837968 43.64712431 115.8476995 38.45703125 120.01953125 C35.24246053 122.61060812 32.11987892 125.29610494 29 128 C31.57598665 127.14133778 33.18907831 126.34114916 35.4140625 124.8828125 C36.4182019 124.22853271 36.4182019 124.22853271 37.44262695 123.56103516 C38.16281006 123.08714355 38.88299316 122.61325195 39.625 122.125 C41.17311646 121.11449046 42.72129522 120.10407634 44.26953125 119.09375 C45.05924316 118.57683594 45.84895508 118.05992187 46.66259766 117.52734375 C50.20398929 115.21326958 53.75861251 112.91981518 57.3125 110.625 C64.39811584 106.04251771 71.47375085 101.44475201 78.546875 96.84301758 C82.53382519 94.24988237 86.52280661 91.66008126 90.51953125 89.08203125 C91.23616943 88.61966064 91.95280762 88.15729004 92.69116211 87.6809082 C94.0888524 86.77930225 95.48679554 85.87808814 96.88500977 84.97729492 C100.38611418 82.71526794 103.86602969 80.42675546 107.3203125 78.09375 C108.01278076 77.62670654 108.70524902 77.15966309 109.41870117 76.6784668 C110.73424376 75.78833972 112.04705704 74.89416134 113.35668945 73.99536133 C117.78086201 71 117.78086201 71 120 71 C121.03572896 72.74122549 122.0531252 74.49336595 123.0625 76.25 C123.91521484 77.71179688 123.91521484 77.71179688 124.78515625 79.203125 C126 82 126 82 125.88037109 83.97827148 C124.613032 86.8886528 122.88258676 87.60960978 120.12890625 89.14453125 C119.09314453 89.73105469 118.05738281 90.31757813 116.99023438 90.921875 C115.85908203 91.54578125 114.72792969 92.1696875 113.5625 92.8125 C112.38139029 93.4764947 111.2010628 94.14188253 110.02148438 94.80859375 C107.56827073 96.19374666 105.111786 97.57281898 102.65283203 98.94775391 C97.0698059 102.07601011 91.53753971 105.29215995 86 108.5 C83.86092751 109.73480891 81.72160281 110.96918104 79.58203125 112.203125 C78.51291504 112.81994141 77.44379883 113.43675781 76.34228516 114.07226562 C73.42404677 115.75542197 70.50545855 117.43796834 67.5866394 119.12011719 C65.19573403 120.49806938 62.80501328 121.87634172 60.41430664 123.25463867 C58.73016037 124.22540982 57.04574769 125.19571874 55.36132812 126.16601562 C54.33845703 126.75576172 53.31558594 127.34550781 52.26171875 127.953125 C51.36412842 128.47036133 50.46653809 128.98759766 49.54174805 129.52050781 C47.01421255 130.9917272 44.5042345 132.48951829 42 134 C43.47973345 133.56442084 44.95874785 133.12639904 46.4375 132.6875 C47.26121094 132.44386719 48.08492188 132.20023438 48.93359375 131.94921875 C52.97782319 130.69731078 56.98760526 129.34995292 61 128 C63.91635305 127.01989556 66.8330638 126.04086739 69.75 125.0625 C70.45898438 124.82337891 71.16796875 124.58425781 71.8984375 124.33789062 C76.18842948 122.90157706 80.49397972 121.54064896 84.82421875 120.23046875 C90.46993532 118.50431376 96.06738564 116.65587819 101.66015625 114.765625 C102.50542877 114.48045517 103.35070129 114.19528534 104.22158813 113.901474 C107.73223577 112.71614677 111.24236699 111.52941299 114.74975586 110.33447266 C117.34308909 109.45192842 119.93886983 108.57693664 122.53515625 107.703125 C123.32680679 107.43131409 124.11845734 107.15950317 124.93409729 106.87945557 C128.49594339 105.68649903 131.20594486 105 135 105 C136.90828622 109.69120362 138.0882491 112.92199957 138 118 C136.07220703 118.42345703 136.07220703 118.42345703 134.10546875 118.85546875 C115.53674443 123.01176383 97.12285317 127.74950788 78.69995117 132.50463867 C77.61022507 132.78492416 76.52049896 133.06520966 75.39775085 133.35398865 C73.34596334 133.88186803 71.29474085 134.41195081 69.24421692 134.94471741 C63.19617344 136.49954978 57.13668012 137.84297531 51 139 C58.7631166 139.16623614 66.28803785 138.55598821 74 137.6875 C86.90902618 136.28723884 99.82757727 135.09935541 112.765625 134.00268555 C113.46289703 133.94289017 114.16016907 133.88309479 114.87857056 133.82148743 C116.76704387 133.65969451 118.65573143 133.50040778 120.54443359 133.34130859 C124.04857855 132.99520186 127.51523162 132.50143011 131 132 C132.8115721 131.9383819 134.62505032 131.91267192 136.4375 131.9375 C137.73494141 131.95103516 137.73494141 131.95103516 139.05859375 131.96484375 C140.01958984 131.98224609 140.01958984 131.98224609 141 132 C142 136 142 136 142 145 C100.09 145 58.18 145 15 145 C15 148.63 15 152.26 15 156 C12.63837267 162.78967859 9.15907683 166.34502422 3 170 C-2.4970727 171.83235757 -8.96647245 172.1772627 -14.42578125 170.05859375 C-20.17697657 166.60354421 -23.80523315 162.37040379 -26 156 C-26.78811804 149.86917478 -26.52023799 144.21928295 -23.4140625 138.7890625 C-20.39127085 134.96464655 -16.33721965 132.16860982 -12 130 C-8.04 130 -4.08 130 0 130 C0 87.1 0 44.2 0 0 Z " fill="#FAFAFA" transform="translate(142,81)"/>
<path d="M0 0 C5.35425582 0.01713362 7.87101464 1.96735289 11.875 5.375 C12.74125 4.385 12.74125 4.385 13.625 3.375 C17.25657859 0.14693014 22.16060475 1.375 26.875 1.375 C28.05280436 4.28729133 29.21525075 7.20547678 30.375 10.125 C30.70886719 10.95 31.04273438 11.775 31.38671875 12.625 C31.70253906 13.42421875 32.01835937 14.2234375 32.34375 15.046875 C32.63701172 15.7800293 32.93027344 16.51318359 33.23242188 17.26855469 C33.875 19.375 33.875 19.375 33.875 23.375 C32.555 23.045 31.235 22.715 29.875 22.375 C29.545 20.725 29.215 19.075 28.875 17.375 C25.245 17.375 21.615 17.375 17.875 17.375 C17.545 19.355 17.215 21.335 16.875 23.375 C15.555 23.375 14.235 23.375 12.875 23.375 C12.545 22.385 12.215 21.395 11.875 20.375 C10.905625 20.87 9.93625 21.365 8.9375 21.875 C4.60653885 23.71104641 0.52130067 24.18418719 -4.125 23.375 C-6.99529869 21.58106332 -8.61631638 20.39236724 -10.125 17.375 C-10.74665748 11.86001005 -11.18904786 7.73916392 -7.6875 3.25 C-6.841875 2.63125 -5.99625 2.0125 -5.125 1.375 C-3.58483127 -0.16516873 -2.14040945 0.09432313 0 0 Z " fill="#1F1F1F" transform="translate(161.125,287.625)"/>
<path d="M0 0 C2.475 0.495 2.475 0.495 5 1 C5 2.32 5 3.64 5 5 C6.97536745 4.65213292 6.97536745 4.65213292 9 4 C9.33 3.34 9.66 2.68 10 2 C10.99 2.99 11.98 3.98 13 5 C13.33 4.01 13.66 3.02 14 2 C14.66 2 15.32 2 16 2 C16.33 2.66 16.66 3.32 17 4 C17.66 3.34 18.32 2.68 19 2 C22.82886065 -0.55257377 25.52039672 -0.76325898 30 0 C33.2169772 1.50125603 35.74831951 3.25497378 38 6 C38.90266112 10.72473971 38.78553058 15.45711199 36.125 19.5625 C33.8871982 22.1293903 33.13208836 22.91384106 29.79296875 23.16796875 C24.93753626 23.20436629 21.50844387 22.91267316 17 21 C16.01 21.66 15.02 22.32 14 23 C10.64453125 23.1953125 10.64453125 23.1953125 6.8125 23.125 C4.564375 23.08375 2.31625 23.0425 0 23 C0 15.41 0 7.82 0 0 Z " fill="#E6E6E6" transform="translate(109,288)"/>
<path d="M0 0 C13.52019231 -0.37211538 13.52019231 -0.37211538 15.94921875 1.51171875 C16.29597656 2.00285156 16.64273438 2.49398438 17 3 C17.33 2.01 17.66 1.02 18 0 C20.31 0 22.62 0 25 0 C27.97 5.61 30.94 11.22 34 17 C34.33 11.39 34.66 5.78 35 0 C35.99 0 36.98 0 38 0 C38 7.26 38 14.52 38 22 C36.02 22 34.04 22 32 22 C29.03 16.72 26.06 11.44 23 6 C22.67 11.28 22.34 16.56 22 22 C20.02 22 18.04 22 16 22 C15.34 22.33 14.68 22.66 14 23 C11.62216895 22.91161539 9.24654854 22.75653579 6.875 22.5625 C3.471875 22.2840625 3.471875 22.2840625 0 22 C0 14.74 0 7.48 0 0 Z " fill="#323232" transform="translate(216,289)"/>
<path d="M0 0 C0.28875 0.639375 0.5775 1.27875 0.875 1.9375 C1.82823451 4.15206079 1.82823451 4.15206079 4 5 C4 5.66 4 6.32 4 7 C4.99 6.67 5.98 6.34 7 6 C6.505 4.515 6.505 4.515 6 3 C6.99 3.33 7.98 3.66 9 4 C9 4.66 9 5.32 9 6 C9.99 6 10.98 6 12 6 C12 5.34 12 4.68 12 4 C12.99 3.67 13.98 3.34 15 3 C15 3.99 15 4.98 15 6 C12.94311523 7.65063477 12.94311523 7.65063477 10.05859375 9.44140625 C9.00776611 10.10221191 7.95693848 10.76301758 6.87426758 11.44384766 C5.72870864 12.15011417 4.58311878 12.85633055 3.4375 13.5625 C1.69250564 14.65452341 -0.0501112 15.75027591 -1.79273987 16.84606934 C-2.94545492 17.57040485 -4.09896842 18.29347128 -5.25328064 19.01525879 C-9.45209605 21.64220332 -13.58908431 24.34488917 -17.6875 27.125 C-24.7521863 31.89241029 -31.94678985 36.451555 -39.15112305 41.00439453 C-44.8212488 44.59198524 -50.43600751 48.24979753 -56 52 C-56 51.01 -56 50.02 -56 49 C-54.05078125 47.16015625 -54.05078125 47.16015625 -51.3125 45.0625 C-46.85334592 41.5421152 -42.63689037 37.89234512 -38.5 34 C-34.60517167 30.35020864 -30.6665494 26.84292917 -26.5 23.5 C-21.11423363 19.17566204 -16.08488996 14.52964973 -11.0390625 9.8203125 C-7.43501637 6.45969163 -3.73968923 3.20867595 0 0 Z " fill="#181818" transform="translate(227,159)"/>
<path d="M0 0 C2.475 0.495 2.475 0.495 5 1 C5 2.32 5 3.64 5 5 C6.97536745 4.65213292 6.97536745 4.65213292 9 4 C9.33 3.34 9.66 2.68 10 2 C10.99 2.99 11.98 3.98 13 5 C13.33 4.01 13.66 3.02 14 2 C14.66 2 15.32 2 16 2 C17.125 5.75 17.125 5.75 16 8 C15.58492826 14.31645868 15.58492826 14.31645868 18 20 C15.44725126 22.45605371 14.14109357 22.98802939 10.546875 23.29296875 C7.03125 23.1953125 3.515625 23.09765625 0 23 C0 15.41 0 7.82 0 0 Z " fill="#1E1E1E" transform="translate(109,288)"/>
<path d="M0 0 C10.19230769 0 10.19230769 0 14 3 C16 5 16 5 16.5 7.8125 C16 11 16 11 13.375 13.875 C9.779961 16.13854307 8.14524671 16.49348175 4 16 C4 18.31 4 20.62 4 23 C2.68 23 1.36 23 0 23 C0 15.41 0 7.82 0 0 Z " fill="#D3D3D3" transform="translate(277,288)"/>
<path d="M0 0 C2.31 0 4.62 0 7 0 C8.17780436 2.91229133 9.34025075 5.83047678 10.5 8.75 C10.83386719 9.575 11.16773438 10.4 11.51171875 11.25 C11.82753906 12.04921875 12.14335937 12.8484375 12.46875 13.671875 C12.90864258 14.77160645 12.90864258 14.77160645 13.35742188 15.89355469 C14 18 14 18 14 22 C12.68 21.67 11.36 21.34 10 21 C9.505 18.525 9.505 18.525 9 16 C5.37 16 1.74 16 -2 16 C-2.33 17.98 -2.66 19.96 -3 22 C-4.32 22 -5.64 22 -7 22 C-5.56006454 14.27670981 -2.94467554 7.2717751 0 0 Z " fill="#DFDFDF" transform="translate(181,289)"/>
<path d="M0 0 C0.66 0.33 1.32 0.66 2 1 C1.67 1.99 1.34 2.98 1 4 C1 4.99 1 5.98 1 7 C0.53515625 9.4921875 0.53515625 9.4921875 -1 12 C-3.72492524 13.46025447 -6.60015398 14.27180621 -9.5625 15.125 C-10.33658203 15.36347656 -11.11066406 15.60195312 -11.90820312 15.84765625 C-13.47649964 16.33081171 -15.04685118 16.80734476 -16.61914062 17.27734375 C-21.95489632 18.89689224 -27.20054534 20.67364517 -32.375 22.75 C-36 24 -36 24 -39 23 C-30.81042765 17.81106044 -22.47250179 12.8676949 -14.0993042 7.98220825 C-12.90580448 7.28439312 -11.7139504 6.5837559 -10.52374268 5.88034058 C-8.82902097 4.87984399 -7.12752102 3.89085618 -5.42578125 2.90234375 C-4.42973877 2.31960693 -3.43369629 1.73687012 -2.4074707 1.13647461 C-1.61300537 0.76143799 -0.81854004 0.38640137 0 0 Z " fill="#1C1C1C" transform="translate(222,192)"/>
<path d="M0 0 C2.31 0 4.62 0 7 0 C9.97 5.61 12.94 11.22 16 17 C16.33 11.39 16.66 5.78 17 0 C17.99 0 18.98 0 20 0 C20 7.26 20 14.52 20 22 C18.02 22 16.04 22 14 22 C11.03 16.72 8.06 11.44 5 6 C4.67 11.28 4.34 16.56 4 22 C2.68 22 1.36 22 0 22 C0 14.74 0 7.48 0 0 Z " fill="#E1E1E1" transform="translate(234,289)"/>
<path d="M0 0 C1.91015625 0.4453125 1.91015625 0.4453125 4.47265625 2.5078125 C6.36348003 6.37166979 6.10264577 8.34612978 4.91015625 12.4453125 C2.78015976 15.5219741 1.65361394 16.30294826 -2.02734375 17.0078125 C-6.20720594 16.24008271 -7.61491016 14.86654423 -10.08984375 11.4453125 C-10.71475898 7.48751601 -10.69991214 5.43667364 -8.58984375 2.0078125 C-5.55947306 0.11383082 -3.53153441 -0.19802997 0 0 Z " fill="#1D1D1D" transform="translate(138.08984375,291.5546875)"/>
<path d="M0 0 C3.41111178 0.04345365 4.68256214 0.2745662 7.75 2 C9.93168017 4.52256769 10.47608098 6.0254718 10.75 9.3125 C9.43 9.3125 8.11 9.3125 6.75 9.3125 C6.09 7.9925 5.43 6.6725 4.75 5.3125 C1.45 5.3125 -1.85 5.3125 -5.25 5.3125 C-6.29725672 11.39650551 -6.29725672 11.39650551 -5.375 17.375 C-2.82005849 19.7045055 -1.92899721 19.60379372 1.4375 19.625 C2.87652893 19.54467143 4.31510191 19.44786774 5.75 19.3125 C6.08 17.9925 6.41 16.6725 6.75 15.3125 C8.07 15.3125 9.39 15.3125 10.75 15.3125 C10.44025617 18.20344238 9.70829554 19.35941751 7.75 21.5625 C3.6883632 23.93178813 0.35155516 24.16278737 -4.25 23.3125 C-7.12029869 21.51856332 -8.74131638 20.32986724 -10.25 17.3125 C-10.87165748 11.79751005 -11.31404786 7.67666392 -7.8125 3.1875 C-6.966875 2.56875 -6.12125 1.95 -5.25 1.3125 C-3.69014791 -0.24735209 -2.16093902 0.06797656 0 0 Z " fill="#F2F2F2" transform="translate(161.25,287.6875)"/>
<path d="M0 0 C4.29 0 8.58 0 13 0 C13 0.99 13 1.98 13 3 C10.03 3 7.06 3 4 3 C4 4.98 4 6.96 4 9 C6.64 9 9.28 9 12 9 C12 9.99 12 10.98 12 12 C9.03 12 6.06 12 3 12 C3 14.31 3 16.62 3 19 C6.3 19 9.6 19 13 19 C13 19.99 13 20.98 13 22 C8.71 22 4.42 22 0 22 C0 14.74 0 7.48 0 0 Z " fill="#F1F1F1" transform="translate(216,289)"/>
<path d="M0 0 C1.32 1.32 2.64 2.64 4 4 C2.36221955 8.19625909 -0.73323182 10.98676785 -3.8828125 14.078125 C-4.45707977 14.64956238 -5.03134705 15.22099976 -5.62301636 15.80975342 C-7.4523581 17.62792945 -9.28854193 19.43901492 -11.125 21.25 C-12.36894774 22.48391329 -13.6124427 23.71828322 -14.85546875 24.953125 C-17.89842367 27.97406743 -20.94753254 30.98867092 -24 34 C-24 29.90559767 -22.41310626 28.63257589 -19.875 25.4375 C-18.96868791 24.28650722 -18.06244193 23.13546238 -17.15625 21.984375 C-16.65738281 21.35595703 -16.15851563 20.72753906 -15.64453125 20.08007812 C-13.172842 16.95377284 -10.73281428 13.80307963 -8.28955078 10.65454102 C-5.53074639 7.09961647 -2.76532519 3.54985287 0 0 Z " fill="#1E1E1E" transform="translate(187,171)"/>
<path d="M0 0 C0.66 0.66 1.32 1.32 2 2 C4.58354218 2.16687448 4.58354218 2.16687448 7 2 C7 6.9708633 5.87026536 7.66938255 2.57421875 11.02148438 C1.97222656 11.61251953 1.37023437 12.20355469 0.75 12.8125 C0.16347656 13.42287109 -0.42304688 14.03324219 -1.02734375 14.66210938 C-1.60097656 15.23380859 -2.17460937 15.80550781 -2.765625 16.39453125 C-3.28930664 16.91893799 -3.81298828 17.44334473 -4.35253906 17.98364258 C-6 19 -6 19 -8.20214844 18.6628418 C-8.79543945 18.444104 -9.38873047 18.22536621 -10 18 C-10.5722959 14.20138599 -9.96855588 12.95210386 -7.8125 9.66796875 C-6.88716783 8.4980845 -5.94920935 7.33809566 -5 6.1875 C-4.52304688 5.59001953 -4.04609375 4.99253906 -3.5546875 4.37695312 C-2.38055765 2.90929082 -1.19169197 1.45343861 0 0 Z " fill="#1A1A1A" transform="translate(198,157)"/>
<path d="M0 0 C0.33 1.32 0.66 2.64 1 4 C1.66 4 2.32 4 3 4 C3.33 3.34 3.66 2.68 4 2 C4.33 2.99 4.66 3.98 5 5 C3.48205882 7.5602002 1.92569341 9.90825926 0.1875 12.3125 C-0.30790283 13.01439453 -0.80330566 13.71628906 -1.3137207 14.43945312 C-2.86589929 16.63354713 -4.43218562 18.81705994 -6 21 C-6.98773659 22.38878453 -7.97474231 23.77808923 -8.9609375 25.16796875 C-11.29595868 28.45355128 -13.64411136 31.729352 -16 35 C-16.33 34.34 -16.66 33.68 -17 33 C-16.30664062 31.25097656 -16.30664062 31.25097656 -15.15625 29.140625 C-14.73714355 28.36050049 -14.31803711 27.58037598 -13.88623047 26.77661133 C-13.42877441 25.94282959 -12.97131836 25.10904785 -12.5 24.25 C-11.5743273 22.53058994 -10.64985828 20.81053134 -9.7265625 19.08984375 C-9.26540039 18.23374512 -8.80423828 17.37764648 -8.32910156 16.49560547 C-6.44881647 12.96506281 -4.65088131 9.39644809 -2.875 5.8125 C-2.31554687 4.68457031 -1.75609375 3.55664062 -1.1796875 2.39453125 C-0.79039062 1.60433594 -0.40109375 0.81414062 0 0 Z " fill="#1C1C1C" transform="translate(174,158)"/>
<path d="M0 0 C1.32 0 2.64 0 4 0 C4 6.6 4 13.2 4 20 C6.97 20 9.94 20 13 20 C13 20.99 13 21.98 13 23 C8.71 23 4.42 23 0 23 C0 15.41 0 7.82 0 0 Z " fill="#E2E2E2" transform="translate(109,288)"/>
<path d="M0 0 C1.32 0 2.64 0 4 0 C4 6.27 4 12.54 4 19 C6.97 19 9.94 19 13 19 C13 19.99 13 20.98 13 22 C8.71 22 4.42 22 0 22 C0 14.74 0 7.48 0 0 Z " fill="#EAEAEA" transform="translate(260,289)"/>
<path d="M0 0 C1.32 0 2.64 0 4 0 C4 6.27 4 12.54 4 19 C6.97 19 9.94 19 13 19 C13 19.99 13 20.98 13 22 C8.71 22 4.42 22 0 22 C0 14.74 0 7.48 0 0 Z " fill="#E9E9E9" transform="translate(199,289)"/>
<path d="M0 0 C0.33 0.99 0.66 1.98 1 3 C0.34 3 -0.32 3 -1 3 C-1 3.66 -1 4.32 -1 5 C-0.01 5 0.98 5 2 5 C0.55702025 9.32893924 -2.75672599 10.58416088 -6.5 12.8125 C-7.95895636 13.70080046 -9.41729323 14.5901192 -10.875 15.48046875 C-11.58269531 15.91020996 -12.29039062 16.33995117 -13.01953125 16.78271484 C-16.7531561 19.07756858 -20.38223833 21.52786286 -24 24 C-24 23.01 -24 22.02 -24 21 C-22.05078125 19.16015625 -22.05078125 19.16015625 -19.3125 17.0625 C-14.62528526 13.36399462 -10.1803533 9.5079984 -5.8125 5.4375 C-5.23604736 4.90068604 -4.65959473 4.36387207 -4.06567383 3.81079102 C-2.70809466 2.54304407 -1.35368496 1.27190431 0 0 Z " fill="#212121" transform="translate(195,187)"/>
<path d="M0 0 C3 1 3 1 3.94921875 2.70703125 C4.31466797 3.74923828 4.31466797 3.74923828 4.6875 4.8125 C4.93886719 5.49957031 5.19023437 6.18664062 5.44921875 6.89453125 C6 9 6 9 6 13 C4.68 12.67 3.36 12.34 2 12 C1.67 10.35 1.34 8.7 1 7 C-2.63 7 -6.26 7 -10 7 C-10.33 8.98 -10.66 10.96 -11 13 C-12.32 13 -13.64 13 -15 13 C-14.39393939 7.54545455 -14.39393939 7.54545455 -12.78125 5.3125 C-10.36627134 3.53304204 -8.77712796 3.69699501 -5.8125 3.8125 C-4.91144531 3.83957031 -4.01039063 3.86664063 -3.08203125 3.89453125 C-2.05142578 3.94673828 -2.05142578 3.94673828 -1 4 C-0.67 2.68 -0.34 1.36 0 0 Z " fill="#EEEEEE" transform="translate(189,298)"/>
<path d="M0 0 C0.02712153 1.916588 0.04645097 3.8332873 0.0625 5.75 C0.07410156 6.81734375 0.08570313 7.8846875 0.09765625 8.984375 C0.01510087 11.53368501 -0.25382442 13.57933591 -1 16 C-2.32 16 -3.64 16 -5 16 C-6.65 11.38 -8.3 6.76 -10 2 C-3.375 -1.125 -3.375 -1.125 0 0 Z " fill="#1A1A1A" transform="translate(199,291)"/>
<path d="M0 0 C0.33 0 0.66 0 1 0 C1.33 1.98 1.66 3.96 2 6 C2.33 4.35 2.66 2.7 3 1 C3.99 0.67 4.98 0.34 6 0 C6.05404449 2.75026417 6.09369306 5.49946203 6.125 8.25 C6.15013672 9.41595703 6.15013672 9.41595703 6.17578125 10.60546875 C6.24125068 18.26539225 6.24125068 18.26539225 4 21 C2.68 21.33 1.36 21.66 0 22 C0 14.74 0 7.48 0 0 Z " fill="#262626" transform="translate(254,289)"/>
<path d="M0 0 C0.99 0 1.98 0 3 0 C3 7.26 3 14.52 3 22 C1.02 22 -0.96 22 -3 22 C-7 15.25 -7 15.25 -7 13 C-5.68 13 -4.36 13 -3 13 C-2.34 14.32 -1.68 15.64 -1 17 C-0.67 11.39 -0.34 5.78 0 0 Z " fill="#F5F5F5" transform="translate(251,289)"/>
<path d="M0 0 C1.65 0 3.3 0 5 0 C4.34 3.96 3.68 7.92 3 12 C5.31 12 7.62 12 10 12 C10 12.99 10 13.98 10 15 C8.02 15 6.04 15 4 15 C4 17.31 4 19.62 4 22 C2.68 22 1.36 22 0 22 C0 14.74 0 7.48 0 0 Z " fill="#EDEDED" transform="translate(277,289)"/>
<path d="M0 0 C0.33 0.33 0.66 0.66 1 1 C2.34747084 1.23075082 3.70377565 1.41153063 5.0625 1.5625 C6.361875 1.706875 7.66125 1.85125 9 2 C9 2.33 9 2.66 9 3 C-13.80127986 5.38776806 -13.80127986 5.38776806 -23 5 C-22 3 -22 3 -20.29760742 2.38989258 C-17.92929739 1.85472151 -15.56152375 1.32187613 -13.1875 0.8125 C-11.95676758 0.52729492 -11.95676758 0.52729492 -10.70117188 0.23632812 C-9.90646484 0.06166016 -9.11175781 -0.11300781 -8.29296875 -0.29296875 C-7.5661792 -0.4530542 -6.83938965 -0.61313965 -6.09057617 -0.77807617 C-3.78142938 -1.02320223 -2.19030646 -0.74063295 0 0 Z " fill="#282828" transform="translate(215,216)"/>
<path d="M0 0 C3.875 1.875 3.875 1.875 5 3 C5.57978088 8.04694508 5.50864419 11.96454576 3.25 16.5625 C1.05609944 18.9392256 0.17134992 19.77347501 -3 20 C-2.71125 19.443125 -2.4225 18.88625 -2.125 18.3125 C-1.75375 17.549375 -1.3825 16.78625 -1 16 C-0.62875 15.278125 -0.2575 14.55625 0.125 13.8125 C1.46662012 9.5001496 2.07004257 4.14008513 0 0 Z " fill="#EFEFEF" transform="translate(142,291)"/>
<path d="M0 0 C0.33 0 0.66 0 1 0 C1.33 3.63 1.66 7.26 2 11 C1.34 10.34 0.68 9.68 0 9 C-2.20250992 8.53993654 -2.20250992 8.53993654 -4.625 8.375 C-5.44226563 8.30023438 -6.25953125 8.22546875 -7.1015625 8.1484375 C-7.72804687 8.09945313 -8.35453125 8.05046875 -9 8 C-9 6.35 -9 4.7 -9 3 C-6.03 3 -3.06 3 0 3 C0 2.01 0 1.02 0 0 Z " fill="#161616" transform="translate(229,299)"/>
<path d="M0 0 C2.875 -0.125 2.875 -0.125 6 0 C6.66 0.66 7.32 1.32 8 2 C7.44444444 6.55555556 7.44444444 6.55555556 6 8 C4.00041636 8.04080783 1.99954746 8.04254356 0 8 C0 5.36 0 2.72 0 0 Z " fill="#1F1F1F" transform="translate(281,292)"/>
<path d="M0 0 C2.97753906 2.75244141 2.97753906 2.75244141 3.1796875 4.98046875 C2.233748 11.83246644 0.3015114 17.90490204 -3 24 C-4.34215465 21.3156907 -3.7789514 19.92538009 -3.22265625 16.9921875 C-3.03896484 16.00605469 -2.85527344 15.01992187 -2.66601562 14.00390625 C-2.36727539 12.45509766 -2.36727539 12.45509766 -2.0625 10.875 C-1.86720703 9.83472656 -1.67191406 8.79445312 -1.47070312 7.72265625 C-0.98634101 5.14726742 -0.49586612 2.57319434 0 0 Z " fill="#333333" transform="translate(157,158)"/>
<path d="M0 0 C4.56618517 -0.35813217 7.92905632 -0.60240582 12 1.6875 C14.18168017 4.21006769 14.72608098 5.7129718 15 9 C13.68 9 12.36 9 11 9 C10.814375 8.360625 10.62875 7.72125 10.4375 7.0625 C9.05753944 4.57873787 9.05753944 4.57873787 5.375 4.25 C4.26125 4.1675 3.1475 4.085 2 4 C2 3.34 2 2.68 2 2 C1.34 1.34 0.68 0.68 0 0 Z " fill="#DADADA" transform="translate(157,288)"/>
<path d="M0 0 C2.97 0 5.94 0 9 0 C9.33 0.99 9.66 1.98 10 3 C9.34 3 8.68 3 8 3 C8 3.66 8 4.32 8 5 C5.36 5 2.72 5 0 5 C0 3.35 0 1.7 0 0 Z " fill="#181818" transform="translate(220,292)"/>
<path d="M0 0 C0 1.32 0 2.64 0 4 C-3 6 -3 6 -6 6 C-6.66 5.01 -7.32 4.02 -8 3 C-10.05003955 1.80767387 -10.05003955 1.80767387 -12 1 C-8.0186217 -0.3271261 -4.14954773 -0.06915913 0 0 Z " fill="#1D1D1D" transform="translate(234,211)"/>
<path d="M0 0 C1.61841797 0.33064453 1.61841797 0.33064453 3.26953125 0.66796875 C4.89955078 0.98701172 4.89955078 0.98701172 6.5625 1.3125 C7.80966797 1.58126953 7.80966797 1.58126953 9.08203125 1.85546875 C9.08203125 2.18546875 9.08203125 2.51546875 9.08203125 2.85546875 C5.45203125 2.85546875 1.82203125 2.85546875 -1.91796875 2.85546875 C-2.24796875 4.83546875 -2.57796875 6.81546875 -2.91796875 8.85546875 C-4.23796875 8.85546875 -5.55796875 8.85546875 -6.91796875 8.85546875 C-6.31869077 3.46196694 -6.31869077 3.46196694 -4.76171875 1.10546875 C-2.91796875 -0.14453125 -2.91796875 -0.14453125 0 0 Z " fill="#D8D8D8" transform="translate(180.91796875,302.14453125)"/>
<path d="M0 0 C0.99 0.33 1.98 0.66 3 1 C2.39889717 5.00735217 0.33397972 7.55469371 -2.0625 10.75 C-2.79597656 11.73484375 -3.52945313 12.7196875 -4.28515625 13.734375 C-4.85105469 14.48203125 -5.41695312 15.2296875 -6 16 C-6.33 15.34 -6.66 14.68 -7 14 C-5.92481882 11.55667274 -4.80191434 9.23245477 -3.5625 6.875 C-3.22412109 6.21628906 -2.88574219 5.55757812 -2.53710938 4.87890625 C-1.69850074 3.24893453 -0.85015189 1.62398091 0 0 Z " fill="#232323" transform="translate(164,177)"/>
<path d="M0 0 C-0.99 0.495 -0.99 0.495 -2 1 C-1.67 2.98 -1.34 4.96 -1 7 C-1.99 7.33 -2.98 7.66 -4 8 C-5.65 6.35 -7.3 4.7 -9 3 C-6.38997624 -0.48003168 -4.1689578 -0.27793052 0 0 Z " fill="#1D1D1D" transform="translate(209,180)"/>
<path d="M0 0 C0.33 0 0.66 0 1 0 C1.33 1.98 1.66 3.96 2 6 C2.33 4.02 2.66 2.04 3 0 C3.33 0 3.66 0 4 0 C4.33 3.63 4.66 7.26 5 11 C2.69 11.33 0.38 11.66 -2 12 C-1.34 8.04 -0.68 4.08 0 0 Z " fill="#3A3A3A" transform="translate(147,296)"/>
<path d="M0 0 C2 1 2 1 2.6328125 2.84765625 C2.79523438 3.57855469 2.95765625 4.30945313 3.125 5.0625 C3.29257813 5.79597656 3.46015625 6.52945312 3.6328125 7.28515625 C3.75398437 7.85105469 3.87515625 8.41695313 4 9 C1.69 9 -0.62 9 -3 9 C-2.01 6.03 -1.02 3.06 0 0 Z " fill="#262626" transform="translate(184,292)"/>
<path d="M0 0 C0.66 1.32 1.32 2.64 2 4 C-1.63 7.63 -5.26 11.26 -9 15 C-9 10.9255567 -6.90830751 8.88254967 -4.5 5.8125 C-3.85611328 4.97428711 -3.85611328 4.97428711 -3.19921875 4.11914062 C-2.13921945 2.74114153 -1.07043812 1.36990593 0 0 Z " fill="#292929" transform="translate(172,190)"/>
<path d="M0 0 C0 0.99 0 1.98 0 3 C-2.64 3.33 -5.28 3.66 -8 4 C-8.66 3.01 -9.32 2.02 -10 1 C-6.42181037 -1.33958553 -4.07775191 -0.9267618 0 0 Z " fill="#1B1B1B" transform="translate(224,214)"/>
<path d="M0 0 C2.15377564 2.62198774 3.40072174 4.64404172 4 8 C2.02 8.33 0.04 8.66 -2 9 C-2 6.69 -2 4.38 -2 2 C-1.34 2 -0.68 2 0 2 C0 1.34 0 0.68 0 0 Z " fill="#292929" transform="translate(241,298)"/>
<path d="M0 0 C1.32 0.66 2.64 1.32 4 2 C0.04 4.64 -3.92 7.28 -8 10 C-8 7 -8 7 -6.25 5.17578125 C-5.5075 4.56089844 -4.765 3.94601563 -4 3.3125 C-3.2575 2.68988281 -2.515 2.06726563 -1.75 1.42578125 C-1.1725 0.95527344 -0.595 0.48476562 0 0 Z " fill="#2C2C2C" transform="translate(179,201)"/>
<path d="M0 0 C1.32 0.66 2.64 1.32 4 2 C1.75 4.5 1.75 4.5 -1 7 C-2.32 7 -3.64 7 -5 7 C-3.70700306 4.11562221 -2.34058637 2.12780579 0 0 Z " fill="#1B1B1B" transform="translate(186,195)"/>
<path d="M0 0 C0.8971875 0.309375 0.8971875 0.309375 1.8125 0.625 C0.8225 2.11 0.8225 2.11 -0.1875 3.625 C-0.8475 3.625 -1.5075 3.625 -2.1875 3.625 C-2.5175 4.615 -2.8475 5.605 -3.1875 6.625 C-4.5075 6.625 -5.8275 6.625 -7.1875 6.625 C-4.6484375 -0.796875 -4.6484375 -0.796875 0 0 Z " fill="#EAEAEA" transform="translate(158.1875,289.375)"/>
<path d="M0 0 C0.33 0.66 0.66 1.32 1 2 C0.01 3.485 0.01 3.485 -1 5 C-1.38499891 6.65549531 -1.72793135 8.3222433 -2 10 C-4.31 10.66 -6.62 11.32 -9 12 C-8.06692579 10.55962331 -7.12834923 9.12281015 -6.1875 7.6875 C-5.66542969 6.88699219 -5.14335937 6.08648437 -4.60546875 5.26171875 C-3.19610151 3.2762598 -1.77903343 1.6508148 0 0 Z " fill="#232323" transform="translate(224,124)"/>
<path d="M0 0 C0.33 1.32 0.66 2.64 1 4 C-0.26607607 4.53229326 -1.53810412 5.05044544 -2.8125 5.5625 C-3.52019531 5.85253906 -4.22789062 6.14257812 -4.95703125 6.44140625 C-7 7 -7 7 -10 6 C-6.7 4.02 -3.4 2.04 0 0 Z " fill="#2D2D2D" transform="translate(193,209)"/>
<path d="M0 0 C0.66 0.66 1.32 1.32 2 2 C1.625 4.125 1.625 4.125 1 6 C0.360625 6.103125 -0.27875 6.20625 -0.9375 6.3125 C-1.618125 6.539375 -2.29875 6.76625 -3 7 C-3.33 7.99 -3.66 8.98 -4 10 C-6.0625 11.1875 -6.0625 11.1875 -8 12 C-6.49087042 7.01987239 -3.44338151 3.75740058 0 0 Z " fill="#252525" transform="translate(212,139)"/>
<path d="M0 0 C0.99 1.485 0.99 1.485 2 3 C2.99 3 3.98 3 5 3 C4.34 5.64 3.68 8.28 3 11 C1.5 10 1.5 10 0 8 C-0.27345479 5.28153765 -0.13491285 2.74322801 0 0 Z " fill="#212121" transform="translate(158,152)"/>
<path d="M0 0 C0.66 0.66 1.32 1.32 2 2 C2.99 2 3.98 2 5 2 C5 3.98 5 5.96 5 8 C4.01 8 3.02 8 2 8 C1.01 5.69 0.02 3.38 -1 1 C-0.67 0.67 -0.34 0.34 0 0 Z " fill="#262626" transform="translate(244,293)"/>
<path d="M0 0 C0.33 0.99 0.66 1.98 1 3 C1.66 3.33 2.32 3.66 3 4 C2 6 2 6 -1.0625 7.125 C-2.031875 7.41375 -3.00125 7.7025 -4 8 C-3.6875 5.125 -3.6875 5.125 -3 2 C-2.01 1.34 -1.02 0.68 0 0 Z " fill="#0E0E0E" transform="translate(228,121)"/>
<path d="M0 0 C0.33 0.66 0.66 1.32 1 2 C-0.32 2.33 -1.64 2.66 -3 3 C-3 3.66 -3 4.32 -3 5 C-4.65 5.33 -6.3 5.66 -8 6 C-8 5.67 -8 5.34 -8 5 C-10.97 4.505 -10.97 4.505 -14 4 C-14 3.67 -14 3.34 -14 3 C-13.15695313 2.86722656 -12.31390625 2.73445312 -11.4453125 2.59765625 C-10.34960938 2.42105469 -9.25390625 2.24445313 -8.125 2.0625 C-6.48917969 1.80146484 -6.48917969 1.80146484 -4.8203125 1.53515625 C-2.06178454 1.14448841 -2.06178454 1.14448841 0 0 Z " fill="#2D2D2D" transform="translate(147,249)"/>
<path d="M0 0 C1.98 0 3.96 0 6 0 C5.67 0.99 5.34 1.98 5 3 C4.01 3.33 3.02 3.66 2 4 C2 5.32 2 6.64 2 8 C1.34 8 0.68 8 0 8 C0 5.36 0 2.72 0 0 Z " fill="#171717" transform="translate(281,292)"/>
<path d="M0 0 C0.99 0.33 1.98 0.66 3 1 C2.42655063 3.86724686 2.1385485 4.8614515 0 7 C-0.66 6.67 -1.32 6.34 -2 6 C-1.34 4.02 -0.68 2.04 0 0 Z " fill="#2B2B2B" transform="translate(164,177)"/>
<path d="M0 0 C1.9375 0.3125 1.9375 0.3125 4 1 C4.33 1.99 4.66 2.98 5 4 C3.35 4.33 1.7 4.66 0 5 C0 3.35 0 1.7 0 0 Z " fill="#252525" transform="translate(243,307)"/>
<path d="M0 0 C0.66 0 1.32 0 2 0 C2.33 1.65 2.66 3.3 3 5 C1.35 5 -0.3 5 -2 5 C-1.125 1.125 -1.125 1.125 0 0 Z " fill="#1D1D1D" transform="translate(185,296)"/>
<path d="M0 0 C2.475 0.99 2.475 0.99 5 2 C4.01 3.32 3.02 4.64 2 6 C1.01 4.35 0.02 2.7 -1 1 C-0.67 0.67 -0.34 0.34 0 0 Z " fill="#1B1B1B" transform="translate(211,106)"/>
<path d="M0 0 C0.99 0.33 1.98 0.66 3 1 C3.6875 3.0625 3.6875 3.0625 4 5 C2.68 5.33 1.36 5.66 0 6 C0 4.02 0 2.04 0 0 Z " fill="#E6E6E6" transform="translate(187,293)"/>
<path d="M0 0 C3.875 0.875 3.875 0.875 5 2 C6.34747084 2.23075082 7.70377565 2.41153063 9.0625 2.5625 C10.361875 2.706875 11.66125 2.85125 13 3 C13 3.33 13 3.66 13 4 C9.7 4 6.4 4 3 4 C2.67 3.01 2.34 2.02 2 1 C1.34 0.67 0.68 0.34 0 0 Z " fill="#343434" transform="translate(211,215)"/>
<path d="M0 0 C2.97 0.495 2.97 0.495 6 1 C6 1.66 6 2.32 6 3 C4.02 3.33 2.04 3.66 0 4 C0 2.68 0 1.36 0 0 Z " fill="#1F1F1F" transform="translate(239,303)"/>
<path d="M0 0 C0.33 0.99 0.66 1.98 1 3 C0.01 3.99 -0.98 4.98 -2 6 C-2.66 5.67 -3.32 5.34 -4 5 C-3.6875 3.0625 -3.6875 3.0625 -3 1 C-2.01 0.67 -1.02 0.34 0 0 Z " fill="#131313" transform="translate(169,173)"/>
<path d="M0 0 C0.99 0 1.98 0 3 0 C3 1.65 3 3.3 3 5 C1.68 5 0.36 5 -1 5 C-0.67 3.35 -0.34 1.7 0 0 Z " fill="#0F0F0F" transform="translate(176,157)"/>
</svg>
